AcariSans-Bold.ufo
<glyph name="parenright" format="2">
  <advance width="601"/>
  <unicode hex="0029"/>
  <outline>
    <contour>
      <point x="521" y="724" type="curve" smooth="yes"/>
      <point x="521" y="1032"/>
      <point x="412" y="1344"/>
      <point x="221" y="1576" type="curve"/>
      <point x="0" y="1576" type="line"/>
      <point x="184" y="1310"/>
      <point x="283" y="1038"/>
      <point x="283" y="724" type="curve" smooth="yes"/>
      <point x="283" y="410"/>
      <point x="183" y="138"/>
      <point x="0" y="-128" type="curve"/>
      <point x="221" y="-128" type="line"/>
      <point x="412" y="105"/>
      <point x="521" y="377"/>
    </contour>
  </outline>
</glyph>
<glyph name="equal" format="2">
  <advance width="1298"/>
  <unicode hex="003D"/>
  <outline>
    <contour>
      <point x="1074" y="770" type="line"/>
      <point x="1074" y="981" type="line"/>
      <point x="224" y="981" type="line"/>
      <point x="224" y="770" type="line"/>
    </contour>
    <contour>
      <point x="1074" y="394" type="line"/>
      <point x="1074" y="606" type="line"/>
      <point x="224" y="606" type="line"/>
      <point x="224" y="394" type="line"/>
    </contour>
  </outline>
</glyph>
<glyph name="C" format="2">
  <advance width="1466"/>
  <unicode hex="0043"/>
  <anchor x="782" y="1620" name="top"/>
  <outline>
    <contour>
      <point x="784" y="-20" type="curve" smooth="yes"/>
      <point x="1075" y="-20"/>
      <point x="1325" y="112"/>
      <point x="1417" y="380" type="curve"/>
      <point x="1177" y="479" type="line"/>
      <point x="1113" y="334"/>
      <point x="982" y="210"/>
      <point x="784" y="210" type="curve" smooth="yes"/>
      <point x="469" y="210"/>
      <point x="342" y="452"/>
      <point x="342" y="734" type="curve" smooth="yes"/>
      <point x="342" y="1020"/>
      <point x="487" y="1238"/>
      <point x="780" y="1238" type="curve" smooth="yes"/>
      <point x="990" y="1238"/>
      <point x="1122" y="1111"/>
      <point x="1172" y="973" type="curve"/>
      <point x="1415" y="1070" type="line"/>
      <point x="1319" y="1335"/>
      <point x="1075" y="1468"/>
      <point x="782" y="1468" type="curve" smooth="yes"/>
      <point x="343" y="1468"/>
      <point x="84" y="1160"/>
      <point x="84" y="724" type="curve" smooth="yes"/>
      <point x="84" y="285"/>
      <point x="344" y="-20"/>
    </contour>
  </outline>
</glyph>
<glyph name="S" format="2">
  <advance width="1172"/>
  <unicode hex="0053"/>
  <anchor x="597" y="1618" name="top"/>
  <outline>
    <contour>
      <point x="53" y="412" type="line"/>
      <point x="99" y="133"/>
      <point x="334" y="-16"/>
      <point x="604" y="-16" type="curve" smooth="yes"/>
      <point x="883" y="-16"/>
      <point x="1104" y="151"/>
      <point x="1104" y="422" type="curve" smooth="yes"/>
      <point x="1104" y="679"/>
      <point x="864" y="788"/>
      <point x="649" y="878" type="curve" smooth="yes"/>
      <point x="522" y="931"/>
      <point x="413" y="975"/>
      <point x="413" y="1083" type="curve" smooth="yes"/>
      <point x="413" y="1181"/>
      <point x="499" y="1238"/>
      <point x="589" y="1238" type="curve" smooth="yes"/>
      <point x="694" y="1238"/>
      <point x="776" y="1167"/>
      <point x="823" y="1077" type="curve"/>
      <point x="1040" y="1211" type="line"/>
      <point x="941" y="1382"/>
      <point x="793" y="1468"/>
      <point x="597" y="1468" type="curve" smooth="yes"/>
      <point x="340" y="1468"/>
      <point x="150" y="1311"/>
      <point x="150" y="1070" type="curve" smooth="yes"/>
      <point x="150" y="818"/>
      <point x="352" y="732"/>
      <point x="551" y="647" type="curve" smooth="yes"/>
      <point x="695" y="586"/>
      <point x="840" y="525"/>
      <point x="840" y="400" type="curve" smooth="yes"/>
      <point x="840" y="269"/>
      <point x="726" y="214"/>
      <point x="607" y="214" type="curve" smooth="yes"/>
      <point x="434" y="214"/>
      <point x="338" y="319"/>
      <point x="313" y="480" type="curve"/>
    </contour>
  </outline>
</glyph>
<glyph name="bracketleft" format="2">
  <advance width="656"/>
  <unicode hex="005B"/>
  <outline>
    <contour>
      <point x="623" y="-168" type="line"/>
      <point x="623" y="0" type="line"/>
      <point x="382" y="0" type="line"/>
      <point x="382" y="1445" type="line"/>
      <point x="623" y="1445" type="line"/>
      <point x="623" y="1611" type="line"/>
      <point x="180" y="1611" type="line"/>
      <point x="180" y="-168" type="line"/>
    </contour>
  </outline>
</glyph>
<glyph name="backslash" format="2">
  <advance width="956"/>
  <unicode hex="005C"/>
  <outline>
    <contour>
      <point x="994" y="-440" type="line"/>
      <point x="195" y="1552" type="line"/>
      <point x="-38" y="1552" type="line"/>
      <point x="761" y="-440" type="line"/>
    </contour>
  </outline>
</glyph>
<glyph name="g" format="2">
  <advance width="1090"/>
  <unicode hex="0067"/>
  <anchor x="541" y="1192" name="top"/>
  <outline>
    <contour>
      <point x="199" y="34" type="curve"/>
      <point x="91" y="-67" type="line"/>
      <point x="88" y="-80"/>
      <point x="87" y="-96"/>
      <point x="87" y="-112" type="curve" smooth="yes"/>
      <point x="87" y="-381"/>
      <point x="343" y="-484"/>
      <point x="572" y="-484" type="curve" smooth="yes"/>
      <point x="799" y="-484"/>
      <point x="1032" y="-390"/>
      <point x="1032" y="-132" type="curve" smooth="yes"/>
      <point x="1032" y="111"/>
      <point x="780" y="148"/>
      <point x="574" y="178" type="curve" smooth="yes"/>
      <point x="432" y="199"/>
      <point x="312" y="205"/>
      <point x="312" y="292" type="curve" smooth="yes"/>
      <point x="312" y="316"/>
      <point x="323" y="335"/>
      <point x="342" y="348" type="curve"/>
      <point x="404" y="321"/>
      <point x="470" y="308"/>
      <point x="541" y="308" type="curve" smooth="yes"/>
      <point x="769" y="308"/>
      <point x="966" y="458"/>
      <point x="966" y="695" type="curve" smooth="yes"/>
      <point x="966" y="762"/>
      <point x="952" y="827"/>
      <point x="922" y="883" type="curve"/>
      <point x="1071" y="1002" type="line"/>
      <point x="950" y="1159" type="line"/>
      <point x="780" y="1024" type="line"/>
      <point x="707" y="1064"/>
      <point x="627" y="1084"/>
      <point x="537" y="1084" type="curve" smooth="yes"/>
      <point x="310" y="1084"/>
      <point x="109" y="940"/>
      <point x="109" y="703" type="curve" smooth="yes"/>
      <point x="109" y="614"/>
      <point x="138" y="532"/>
      <point x="194" y="459" type="curve"/>
      <point x="131" y="403"/>
      <point x="98" y="331"/>
      <point x="98" y="242" type="curve" smooth="yes"/>
      <point x="98" y="150"/>
      <point x="132" y="80"/>
    </contour>
    <contour>
      <point x="543" y="514" type="curve" smooth="yes"/>
      <point x="431" y="514"/>
      <point x="367" y="588"/>
      <point x="367" y="698" type="curve" smooth="yes"/>
      <point x="367" y="806"/>
      <point x="431" y="891"/>
      <point x="543" y="891" type="curve" smooth="yes"/>
      <point x="655" y="891"/>
      <point x="718" y="806"/>
      <point x="718" y="698" type="curve" smooth="yes"/>
      <point x="718" y="587"/>
      <point x="656" y="514"/>
    </contour>
    <contour>
      <point x="575" y="-288" type="curve" smooth="yes"/>
      <point x="459" y="-288"/>
      <point x="317" y="-254"/>
      <point x="298" y="-119" type="curve"/>
      <point x="350" y="-29" type="line"/>
      <point x="373" y="-34"/>
      <point x="412" y="-40"/>
      <point x="458" y="-43" type="curve" smooth="yes"/>
      <point x="596" y="-53"/>
      <point x="796" y="-80"/>
      <point x="796" y="-167" type="curve" smooth="yes"/>
      <point x="796" y="-270"/>
      <point x="652" y="-288"/>
    </contour>
  </outline>
</glyph>
<glyph name="t" format="2">
  <advance width="788"/>
  <unicode hex="0074"/>
  <anchor x="475" y="0" name="cedilla"/>
  <outline>
    <contour>
      <point x="526" y="-20" type="curve" smooth="yes"/>
      <point x="596" y="-20"/>
      <point x="671" y="-6"/>
      <point x="715" y="10" type="curve"/>
      <point x="715" y="239" type="line"/>
      <point x="665" y="213"/>
      <point x="614" y="200"/>
      <point x="566" y="200" type="curve" smooth="yes"/>
      <point x="480" y="200"/>
      <point x="437" y="245"/>
      <point x="437" y="335" type="curve" smooth="yes"/>
      <point x="437" y="855" type="line"/>
      <point x="715" y="855" type="line"/>
      <point x="715" y="1064" type="line"/>
      <point x="437" y="1064" type="line"/>
      <point x="437" y="1455" type="line"/>
      <point x="202" y="1293" type="line"/>
      <point x="202" y="1064" type="line"/>
      <point x="27" y="1064" type="line"/>
      <point x="27" y="855" type="line"/>
      <point x="198" y="855" type="line"/>
      <point x="198" y="298" type="line" smooth="yes"/>
      <point x="198" y="96"/>
      <point x="327" y="-20"/>
    </contour>
  </outline>
</glyph>
<glyph name="yen" format="2">
  <advance width="1229"/>
  <unicode hex="00A5"/>
  <outline>
    <contour>
      <point x="721" y="0" type="line"/>
      <point x="721" y="200" type="line"/>
      <point x="1028" y="200" type="line"/>
      <point x="1028" y="388" type="line"/>
      <point x="721" y="388" type="line"/>
      <point x="721" y="508" type="line"/>
      <point x="1028" y="508" type="line"/>
      <point x="1028" y="696" type="line"/>
      <point x="809" y="696" type="line"/>
      <point x="1294" y="1447" type="line"/>
      <point x="1038" y="1447" type="line"/>
      <point x="615" y="761" type="line"/>
      <point x="191" y="1447" type="line"/>
      <point x="-65" y="1447" type="line"/>
      <point x="419" y="698" type="line"/>
      <point x="201" y="698" type="line"/>
      <point x="201" y="508" type="line"/>
      <point x="507" y="508" type="line"/>
      <point x="507" y="388" type="line"/>
      <point x="201" y="388" type="line"/>
      <point x="201" y="200" type="line"/>
      <point x="507" y="200" type="line"/>
      <point x="507" y="0" type="line"/>
    </contour>
  </outline>
</glyph>
<glyph name="guillemotleft" format="2">
  <advance width="977"/>
  <unicode hex="00AB"/>
  <outline>
    <contour>
      <point x="455" y="160" type="line"/>
      <point x="455" y="376" type="line"/>
      <point x="270" y="522" type="line"/>
      <point x="455" y="671" type="line"/>
      <point x="455" y="887" type="line"/>
      <point x="16" y="522" type="line"/>
    </contour>
    <contour>
      <point x="826" y="160" type="line"/>
      <point x="826" y="376" type="line"/>
      <point x="642" y="522" type="line"/>
      <point x="826" y="671" type="line"/>
      <point x="826" y="887" type="line"/>
      <point x="388" y="522" type="line"/>
    </contour>
  </outline>
</glyph>
<glyph name="plusminus" format="2">
  <advance width="1363"/>
  <unicode hex="00B1"/>
  <outline>
    <contour>
      <point x="776" y="109" type="line"/>
      <point x="776" y="545" type="line"/>
      <point x="1243" y="545" type="line"/>
      <point x="1243" y="734" type="line"/>
      <point x="776" y="734" type="line"/>
      <point x="776" y="1170" type="line"/>
      <point x="587" y="1170" type="line"/>
      <point x="587" y="734" type="line"/>
      <point x="120" y="734" type="line"/>
      <point x="120" y="545" type="line"/>
      <point x="587" y="545" type="line"/>
      <point x="587" y="109" type="line"/>
    </contour>
    <contour>
      <point x="1241" y="-188" type="line"/>
      <point x="1241" y="0" type="line"/>
      <point x="122" y="0" type="line"/>
      <point x="122" y="-188" type="line"/>
    </contour>
  </outline>
</glyph>
<glyph name="twosuperior" format="2">
  <advance width="855"/>
  <unicode hex="00B2"/>
  <outline>
    <contour>
      <point x="32" y="932" type="line"/>
      <point x="807" y="932" type="line"/>
      <point x="807" y="1108" type="line"/>
      <point x="338" y="1108" type="line"/>
      <point x="509" y="1203"/>
      <point x="760" y="1417"/>
      <point x="760" y="1621" type="curve" smooth="yes"/>
      <point x="760" y="1773"/>
      <point x="628" y="1900"/>
      <point x="428" y="1900" type="curve" smooth="yes"/>
      <point x="233" y="1900"/>
      <point x="85" y="1757"/>
      <point x="71" y="1565" type="curve"/>
      <point x="261" y="1556" type="line"/>
      <point x="270" y="1652"/>
      <point x="319" y="1724"/>
      <point x="428" y="1724" type="curve" smooth="yes"/>
      <point x="522" y="1724"/>
      <point x="564" y="1665"/>
      <point x="564" y="1588" type="curve" smooth="yes"/>
      <point x="564" y="1423"/>
      <point x="177" y="1102"/>
      <point x="32" y="1066" type="curve"/>
    </contour>
  </outline>
</glyph>
<glyph name="kgreenlandic" format="2">
  <advance width="1172"/>
  <unicode hex="0138"/>
  <outline>
    <contour>
      <point x="1187" y="0" type="line"/>
      <point x="745" y="651" type="line"/>
      <point x="1144" y="1064" type="line"/>
      <point x="806" y="1064" type="line"/>
      <point x="404" y="622" type="line"/>
      <point x="404" y="1064" type="line"/>
      <point x="155" y="1064" type="line"/>
      <point x="155" y="0" type="line"/>
      <point x="404" y="0" type="line"/>
      <point x="404" y="312" type="line"/>
      <point x="568" y="494" type="line"/>
      <point x="881" y="0" type="line"/>
    </contour>
  </outline>
</glyph>
<glyph name="Lcaron" format="2">
  <advance width="1126"/>
  <unicode hex="013D"/>
  <outline>
    <contour>
      <point x="833" y="981" type="line"/>
      <point x="1065" y="1447" type="line"/>
      <point x="803" y="1447" type="line"/>
      <point x="686" y="981" type="line"/>
    </contour>
    <contour>
      <point x="1065" y="0" type="line"/>
      <point x="1065" y="246" type="line"/>
      <point x="446" y="246" type="line"/>
      <point x="446" y="1448" type="line"/>
      <point x="186" y="1448" type="line"/>
      <point x="186" y="0" type="line"/>
    </contour>
  </outline>
</glyph>
<glyph name="eng" format="2">
  <advance width="1198"/>
  <unicode hex="014B"/>
  <outline>
    <contour>
      <point x="760" y="-378" type="line" smooth="yes"/>
      <point x="984" y="-378"/>
      <point x="1086" y="-270"/>
      <point x="1086" y="-58" type="curve" smooth="yes"/>
      <point x="1086" y="648" type="line" smooth="yes"/>
      <point x="1086" y="885"/>
      <point x="969" y="1084"/>
      <point x="706" y="1084" type="curve" smooth="yes"/>
      <point x="595" y="1084"/>
      <point x="479" y="1042"/>
      <point x="398" y="937" type="curve"/>
      <point x="398" y="1064" type="line"/>
      <point x="155" y="1064" type="line"/>
      <point x="155" y="7" type="line"/>
      <point x="398" y="7" type="line"/>
      <point x="398" y="596" type="line" smooth="yes"/>
      <point x="398" y="740"/>
      <point x="527" y="862"/>
      <point x="669" y="862" type="curve" smooth="yes"/>
      <point x="815" y="862"/>
      <point x="844" y="743"/>
      <point x="844" y="619" type="curve" smooth="yes"/>
      <point x="844" y="5" type="line" smooth="yes"/>
      <point x="844" y="-97"/>
      <point x="832" y="-172"/>
      <point x="715" y="-172" type="curve" smooth="yes"/>
      <point x="634" y="-172" type="line"/>
      <point x="634" y="-378" type="line"/>
    </contour>
  </outline>
</glyph>
<glyph name="Scedilla" format="2">
  <advance width="1172"/>
  <unicode hex="015E"/>
  <anchor x="597" y="1618" name="top"/>
  <outline>
    <contour>
      <point x="53" y="412" type="line"/>
      <point x="95" y="158"/>
      <point x="294" y="12"/>
      <point x="533" y="-12" type="curve"/>
      <point x="444" y="-178" type="line"/>
      <point x="455" y="-200" type="line"/>
      <point x="486" y="-200" type="line" smooth="yes"/>
      <point x="555" y="-200"/>
      <point x="658" y="-227"/>
      <point x="658" y="-312" type="curve" smooth="yes"/>
      <point x="658" y="-358"/>
      <point x="624" y="-392"/>
      <point x="576" y="-392" type="curve" smooth="yes"/>
      <point x="543" y="-392"/>
      <point x="514" y="-370"/>
      <point x="503" y="-342" type="curve"/>
      <point x="368" y="-402" type="line"/>
      <point x="404" y="-481"/>
      <point x="483" y="-535"/>
      <point x="570" y="-535" type="curve" smooth="yes"/>
      <point x="702" y="-535"/>
      <point x="805" y="-438"/>
      <point x="805" y="-304" type="curve" smooth="yes"/>
      <point x="805" y="-200"/>
      <point x="736" y="-122"/>
      <point x="626" y="-103" type="curve"/>
      <point x="675" y="-12" type="line"/>
      <point x="919" y="14"/>
      <point x="1104" y="175"/>
      <point x="1104" y="422" type="curve" smooth="yes"/>
      <point x="1104" y="679"/>
      <point x="864" y="788"/>
      <point x="649" y="878" type="curve" smooth="yes"/>
      <point x="522" y="931"/>
      <point x="413" y="975"/>
      <point x="413" y="1083" type="curve" smooth="yes"/>
      <point x="413" y="1181"/>
      <point x="499" y="1238"/>
      <point x="589" y="1238" type="curve" smooth="yes"/>
      <point x="694" y="1238"/>
      <point x="776" y="1167"/>
      <point x="823" y="1077" type="curve"/>
      <point x="1040" y="1211" type="line"/>
      <point x="941" y="1382"/>
      <point x="793" y="1468"/>
      <point x="597" y="1468" type="curve" smooth="yes"/>
      <point x="340" y="1468"/>
      <point x="150" y="1311"/>
      <point x="150" y="1070" type="curve" smooth="yes"/>
      <point x="150" y="818"/>
      <point x="352" y="732"/>
      <point x="551" y="647" type="curve" smooth="yes"/>
      <point x="695" y="586"/>
      <point x="840" y="525"/>
      <point x="840" y="400" type="curve" smooth="yes"/>
      <point x="840" y="269"/>
      <point x="726" y="214"/>
      <point x="607" y="214" type="curve" smooth="yes"/>
      <point x="434" y="214"/>
      <point x="338" y="319"/>
      <point x="313" y="480" type="curve"/>
    </contour>
  </outline>
</glyph>
<glyph name="circumflex" format="2">
  <advance width="669"/>
  <unicode hex="02C6"/>
  <outline>
    <contour>
      <point x="10" y="1192" type="line"/>
      <point x="204" y="1192" type="line"/>
      <point x="334" y="1340" type="line"/>
      <point x="466" y="1192" type="line"/>
      <point x="658" y="1192" type="line"/>
      <point x="334" y="1552" type="line"/>
    </contour>
  </outline>
</glyph>
<glyph name="colontriangularhalfmod" format="2">
  <advance width="596"/>
  <unicode hex="02D1"/>
  <outline>
    <contour>
      <point x="298" y="185" type="line"/>
      <point x="556" y="674" type="line"/>
      <point x="40" y="674" type="line"/>
    </contour>
  </outline>
</glyph>
<glyph name="breve" format="2">
  <advance width="728"/>
  <unicode hex="02D8"/>
  <outline>
    <contour>
      <point x="365" y="1192" type="curve" smooth="yes"/>
      <point x="580" y="1192"/>
      <point x="687" y="1285"/>
      <point x="687" y="1469" type="curve"/>
      <point x="511" y="1469" type="line"/>
      <point x="511" y="1382"/>
      <point x="448" y="1339"/>
      <point x="365" y="1339" type="curve" smooth="yes"/>
      <point x="282" y="1339"/>
      <point x="217" y="1379"/>
      <point x="217" y="1469" type="curve"/>
      <point x="41" y="1469" type="line"/>
      <point x="41" y="1285"/>
      <point x="149" y="1192"/>
    </contour>
  </outline>
</glyph>
<glyph name="gravecomb" format="2">
  <unicode hex="0300"/>
  <anchor x="-146" y="1192" name="_top"/>
  <outline>
    <contour>
      <point x="-33" y="1192" type="line"/>
      <point x="-264" y="1508" type="line"/>
      <point x="-531" y="1508" type="line"/>
      <point x="-215" y="1192" type="line"/>
    </contour>
  </outline>
</glyph>
<glyph name="brevecomb" format="2">
  <unicode hex="0306"/>
  <anchor x="-440" y="1192" name="_top"/>
  <outline>
    <contour>
      <point x="-440" y="1191" type="curve" smooth="yes"/>
      <point x="-225" y="1191"/>
      <point x="-118" y="1284"/>
      <point x="-118" y="1468" type="curve"/>
      <point x="-294" y="1468" type="line"/>
      <point x="-294" y="1381"/>
      <point x="-357" y="1338"/>
      <point x="-440" y="1338" type="curve" smooth="yes"/>
      <point x="-523" y="1338"/>
      <point x="-588" y="1378"/>
      <point x="-588" y="1468" type="curve"/>
      <point x="-764" y="1468" type="line"/>
      <point x="-764" y="1284"/>
      <point x="-656" y="1191"/>
    </contour>
  </outline>
</glyph>
<glyph name="dotaccentcomb" format="2">
  <unicode hex="0307"/>
  <anchor x="-306" y="1192" name="_top"/>
  <outline>
    <contour>
      <point x="-437" y="1240" type="line"/>
      <point x="-175" y="1240" type="line"/>
      <point x="-175" y="1470" type="line"/>
      <point x="-437" y="1470" type="line"/>
    </contour>
  </outline>
</glyph>
<glyph name="hookabovecomb" format="2">
  <unicode hex="0309"/>
  <anchor x="-310" y="1098" name="_top"/>
  <outline>
    <contour>
      <point x="-349" y="1098" type="line"/>
      <point x="-159" y="1126"/>
      <point x="-76" y="1185"/>
      <point x="-76" y="1298" type="curve" smooth="yes"/>
      <point x="-76" y="1430"/>
      <point x="-203" y="1511"/>
      <point x="-411" y="1511" type="curve" smooth="yes"/>
      <point x="-442" y="1511" type="line"/>
      <point x="-442" y="1365" type="line"/>
      <point x="-307" y="1365"/>
      <point x="-244" y="1338"/>
      <point x="-244" y="1282" type="curve" smooth="yes"/>
      <point x="-244" y="1237"/>
      <point x="-282" y="1212"/>
      <point x="-377" y="1196" type="curve"/>
    </contour>
  </outline>
</glyph>
<glyph name="commaaccentcomb" format="2">
  <unicode hex="0326"/>
  <outline>
    <contour>
      <point x="-428" y="-470" type="line"/>
      <point x="-284" y="-470" type="line"/>
      <point x="-30" y="-109" type="line"/>
      <point x="-290" y="-109" type="line"/>
    </contour>
  </outline>
</glyph>
<glyph name="Eta" format="2">
  <advance width="1527"/>
  <unicode hex="0397"/>
  <anchor x="51" y="1136" name="top"/>
  <outline>
    <contour>
      <point x="1340" y="0" type="line"/>
      <point x="1340" y="1448" type="line"/>
      <point x="1080" y="1448" type="line"/>
      <point x="1080" y="843" type="line"/>
      <point x="446" y="843" type="line"/>
      <point x="446" y="1448" type="line"/>
      <point x="186" y="1448" type="line"/>
      <point x="186" y="0" type="line"/>
      <point x="446" y="0" type="line"/>
      <point x="446" y="604" type="line"/>
      <point x="1080" y="604" type="line"/>
      <point x="1080" y="0" type="line"/>
    </contour>
  </outline>
</glyph>
<glyph name="Upsilon" format="2">
  <advance width="1351"/>
  <unicode hex="03A5"/>
  <anchor x="673" y="1618" name="top"/>
  <outline>
    <contour>
      <point x="812" y="0" type="line"/>
      <point x="812" y="564" type="line"/>
      <point x="1353" y="1448" type="line"/>
      <point x="1036" y="1448" type="line"/>
      <point x="673" y="814" type="line"/>
      <point x="312" y="1448" type="line"/>
      <point x="-2" y="1448" type="line"/>
      <point x="541" y="564" type="line"/>
      <point x="541" y="0" type="line"/>
    </contour>
  </outline>
</glyph>
<glyph name="Chi" format="2">
  <advance width="1375"/>
  <unicode hex="03A7"/>
  <outline>
    <contour>
      <point x="1351" y="0" type="line"/>
      <point x="866" y="724" type="line"/>
      <point x="1349" y="1448" type="line"/>
      <point x="1038" y="1448" type="line"/>
      <point x="688" y="889" type="line"/>
      <point x="338" y="1448" type="line"/>
      <point x="28" y="1448" type="line"/>
      <point x="510" y="724" type="line"/>
      <point x="26" y="0" type="line"/>
      <point x="336" y="0" type="line"/>
      <point x="686" y="550" type="line"/>
      <point x="1040" y="0" type="line"/>
    </contour>
  </outline>
</glyph>
<glyph name="gamma" format="2">
  <advance width="1175"/>
  <unicode hex="03B3"/>
  <outline>
    <contour>
      <point x="341" y="997" type="line" smooth="yes"/>
      <point x="310" y="1070"/>
      <point x="212" y="1094"/>
      <point x="122" y="1094" type="curve" smooth="yes"/>
      <point x="102" y="1094"/>
      <point x="46" y="1093"/>
      <point x="10" y="1087" type="curve"/>
      <point x="10" y="882" type="line"/>
      <point x="24" y="884"/>
      <point x="51" y="886"/>
      <point x="67" y="886" type="curve" smooth="yes"/>
      <point x="106" y="886"/>
      <point x="130" y="866"/>
      <point x="148" y="825" type="curve" smooth="yes"/>
      <point x="479" y="70" type="line"/>
      <point x="479" y="-426" type="line"/>
      <point x="744" y="-426" type="line"/>
      <point x="744" y="58" type="line"/>
      <point x="1165" y="1065" type="line"/>
      <point x="901" y="1065" type="line"/>
      <point x="565" y="258" type="line"/>
      <point x="659" y="258" type="line"/>
    </contour>
  </outline>
  <guideline angle="293.693" x="181" y="871"/>
  <guideline angle="67.4143" x="724" y="57"/>
  <guideline angle="247.65" x="952" y="1070"/>
  <guideline angle="113.178" x="639" y="268"/>
</glyph>
<glyph name="epsilon" format="2">
  <advance width="1128"/>
  <unicode hex="03B5"/>
  <anchor x="550" y="1229" name="tonos.top"/>
  <outline>
    <contour>
      <point x="106" y="275" type="curve" smooth="yes"/>
      <point x="106" y="97"/>
      <point x="273" y="-20"/>
      <point x="543" y="-20" type="curve" smooth="yes"/>
      <point x="803" y="-20"/>
      <point x="978" y="88"/>
      <point x="1014" y="259" type="curve"/>
      <point x="793" y="290" type="line"/>
      <point x="775" y="201"/>
      <point x="691" y="151"/>
      <point x="557" y="151" type="curve" smooth="yes"/>
      <point x="451" y="151"/>
      <point x="381" y="211"/>
      <point x="381" y="304" type="curve" smooth="yes"/>
      <point x="381" y="396"/>
      <point x="451" y="486"/>
      <point x="555" y="486" type="curve" smooth="yes"/>
      <point x="674" y="486" type="line"/>
      <point x="674" y="626" type="line"/>
      <point x="545" y="626" type="line" smooth="yes"/>
      <point x="461" y="626"/>
      <point x="413" y="701"/>
      <point x="413" y="787" type="curve" smooth="yes"/>
      <point x="413" y="857"/>
      <point x="477" y="913"/>
      <point x="561" y="913" type="curve" smooth="yes"/>
      <point x="671" y="913"/>
      <point x="745" y="859"/>
      <point x="753" y="771" type="curve"/>
      <point x="971" y="790" type="line"/>
      <point x="952" y="969"/>
      <point x="791" y="1084"/>
      <point x="537" y="1084" type="curve" smooth="yes"/>
      <point x="294" y="1084"/>
      <point x="152" y="963"/>
      <point x="152" y="793" type="curve" smooth="yes"/>
      <point x="152" y="662"/>
      <point x="224" y="582"/>
      <point x="333" y="555" type="curve"/>
      <point x="338" y="570" type="line"/>
      <point x="178" y="528"/>
      <point x="106" y="432"/>
    </contour>
  </outline>
</glyph>
<glyph name="eta" format="2">
  <advance width="1294"/>
  <unicode hex="03B7"/>
  <anchor x="632" y="1277" name="tonos.top"/>
  <outline>
    <contour>
      <point x="462" y="0" type="line"/>
      <point x="462" y="890" type="line"/>
      <point x="449" y="890" type="line"/>
      <point x="423" y="1024"/>
      <point x="338" y="1064"/>
      <point x="181" y="1064" type="curve" smooth="yes"/>
      <point x="136" y="1064"/>
      <point x="113" y="1060"/>
      <point x="68" y="1047" type="curve"/>
      <point x="68" y="868" type="line"/>
      <point x="77" y="870"/>
      <point x="100" y="873"/>
      <point x="115" y="873" type="curve" smooth="yes"/>
      <point x="160" y="873"/>
      <point x="198" y="841"/>
      <point x="198" y="802" type="curve" smooth="yes"/>
      <point x="198" y="0" type="line"/>
    </contour>
    <contour>
      <point x="907" y="-426" type="line"/>
      <point x="1175" y="-426" type="line"/>
      <point x="1175" y="21" type="line"/>
      <point x="907" y="21" type="line"/>
    </contour>
    <contour>
      <point x="421" y="615" type="line"/>
      <point x="461" y="615" type="line"/>
      <point x="464" y="811"/>
      <point x="553" y="930"/>
      <point x="700" y="930" type="curve" smooth="yes"/>
      <point x="838" y="930"/>
      <point x="906" y="834"/>
      <point x="906" y="641" type="curve" smooth="yes"/>
      <point x="906" y="0" type="line"/>
      <point x="1172" y="0" type="line"/>
      <point x="1172" y="717" type="line" smooth="yes"/>
      <point x="1172" y="960"/>
      <point x="1040" y="1094"/>
      <point x="804" y="1094" type="curve" smooth="yes"/>
      <point x="657" y="1094"/>
      <point x="544" y="1036"/>
      <point x="461" y="921" type="curve"/>
      <point x="421" y="862" type="line"/>
    </contour>
  </outline>
  <guideline angle="90" x="385" y="0"/>
</glyph>
<glyph name="kappa" format="2">
  <advance width="1211"/>
  <unicode hex="03BA"/>
  <outline>
    <contour>
      <point x="155" y="0" type="line"/>
      <point x="405" y="0" type="line"/>
      <point x="405" y="312" type="line"/>
      <point x="569" y="494" type="line"/>
      <point x="882" y="0" type="line"/>
      <point x="1188" y="0" type="line"/>
      <point x="746" y="651" type="line"/>
      <point x="1145" y="1064" type="line"/>
      <point x="807" y="1064" type="line"/>
      <point x="405" y="622" type="line"/>
      <point x="405" y="1064" type="line"/>
      <point x="155" y="1064" type="line"/>
    </contour>
  </outline>
</glyph>
<glyph name="nu" format="2">
  <advance width="1064"/>
  <unicode hex="03BD"/>
  <anchor x="557" y="1188" name="top"/>
  <outline>
    <contour>
      <point x="639" y="0" type="line"/>
      <point x="1073" y="1064" type="line"/>
      <point x="792" y="1064" type="line"/>
      <point x="532" y="336" type="line"/>
      <point x="274" y="1064" type="line"/>
      <point x="-8" y="1064" type="line"/>
      <point x="425" y="0" type="line"/>
    </contour>
  </outline>
</glyph>
<glyph name="rho" format="2">
  <advance width="1270"/>
  <unicode hex="03C1"/>
  <outline>
    <contour>
      <point x="157" y="-426" type="line"/>
      <point x="422" y="-426" type="line"/>
      <point x="422" y="105" type="line"/>
      <point x="507" y="8"/>
      <point x="620" y="-30"/>
      <point x="737" y="-30" type="curve" smooth="yes"/>
      <point x="1048" y="-30"/>
      <point x="1211" y="213"/>
      <point x="1211" y="542" type="curve" smooth="yes"/>
      <point x="1211" y="847"/>
      <point x="1048" y="1094"/>
      <point x="715" y="1094" type="curve" smooth="yes"/>
      <point x="332" y="1094"/>
      <point x="157" y="896"/>
      <point x="157" y="483" type="curve" smooth="yes"/>
    </contour>
    <contour>
      <point x="422" y="603" type="line"/>
      <point x="421" y="786"/>
      <point x="521" y="914"/>
      <point x="679" y="914" type="curve" smooth="yes"/>
      <point x="876" y="914"/>
      <point x="946" y="721"/>
      <point x="946" y="545" type="curve"/>
      <point x="945" y="510" type="line" smooth="yes"/>
      <point x="938" y="342"/>
      <point x="872" y="138"/>
      <point x="672" y="138" type="curve" smooth="yes"/>
      <point x="526" y="138"/>
      <point x="422" y="267"/>
      <point x="422" y="433" type="curve" smooth="yes"/>
    </contour>
  </outline>
  <guideline angle="90" x="168" y="0"/>
</glyph>
<glyph name="sigmafinal" format="2">
  <advance width="1133"/>
  <unicode hex="03C2"/>
  <outline>
    <contour>
      <point x="595" y="1090" type="curve" smooth="yes"/>
      <point x="268" y="1090"/>
      <point x="50" y="921"/>
      <point x="50" y="586" type="curve" smooth="yes"/>
      <point x="50" y="327"/>
      <point x="155" y="112"/>
      <point x="464" y="44" type="curve"/>
      <point x="732" y="-17" type="line" smooth="yes"/>
      <point x="765" y="-24"/>
      <point x="789" y="-57"/>
      <point x="789" y="-108" type="curve" smooth="yes"/>
      <point x="789" y="-162"/>
      <point x="744" y="-332"/>
      <point x="700" y="-426" type="curve"/>
      <point x="953" y="-426" type="line"/>
      <point x="1004" y="-328"/>
      <point x="1042" y="-126"/>
      <point x="1043" y="-31" type="curve"/>
      <point x="1043" y="66"/>
      <point x="1004" y="137"/>
      <point x="920" y="161" type="curve" smooth="yes"/>
      <point x="534" y="269" type="line" smooth="yes"/>
      <point x="407" y="304"/>
      <point x="313" y="439"/>
      <point x="313" y="603" type="curve" smooth="yes"/>
      <point x="313" y="803"/>
      <point x="389" y="926"/>
      <point x="578" y="926" type="curve"/>
      <point x="721" y="927"/>
      <point x="807" y="822"/>
      <point x="819" y="640" type="curve"/>
      <point x="1083" y="640" type="line"/>
      <point x="1072" y="937"/>
      <point x="840" y="1090"/>
    </contour>
  </outline>
</glyph>
<glyph name="sigma" format="2">
  <advance width="1294"/>
  <unicode hex="03C3"/>
  <outline>
    <contour>
      <point x="101" y="532" type="curve" smooth="yes"/>
      <point x="101" y="199"/>
      <point x="322" y="-29"/>
      <point x="648" y="-29" type="curve" smooth="yes"/>
      <point x="970" y="-29"/>
      <point x="1190" y="197"/>
      <point x="1190" y="532" type="curve" smooth="yes"/>
      <point x="1190" y="866"/>
      <point x="972" y="1093"/>
      <point x="648" y="1093" type="curve" smooth="yes"/>
      <point x="322" y="1093"/>
      <point x="101" y="866"/>
    </contour>
    <contour>
      <point x="367" y="532" type="curve" smooth="yes"/>
      <point x="367" y="784"/>
      <point x="468" y="922"/>
      <point x="646" y="922" type="curve" smooth="yes"/>
      <point x="823" y="922"/>
      <point x="923" y="784"/>
      <point x="923" y="532" type="curve" smooth="yes"/>
      <point x="923" y="280"/>
      <point x="823" y="142"/>
      <point x="646" y="142" type="curve" smooth="yes"/>
      <point x="468" y="142"/>
      <point x="367" y="280"/>
    </contour>
    <contour>
      <point x="997" y="868" type="line"/>
      <point x="1277" y="868" type="line"/>
      <point x="1277" y="1064" type="line"/>
      <point x="813" y="1064" type="line"/>
    </contour>
  </outline>
</glyph>
<glyph name="chi" format="2">
  <advance width="1164"/>
  <unicode hex="03C7"/>
  <outline>
    <contour>
      <point x="824" y="-340" type="line" smooth="yes"/>
      <point x="853" y="-396"/>
      <point x="929" y="-416"/>
      <point x="991" y="-416" type="curve" smooth="yes"/>
      <point x="1033" y="-416"/>
      <point x="1184" y="-410"/>
      <point x="1219" y="-397" type="curve"/>
      <point x="1219" y="-226" type="line"/>
      <point x="1209" y="-228"/>
      <point x="1199" y="-228"/>
      <point x="1184" y="-228" type="curve" smooth="yes"/>
      <point x="1140" y="-228"/>
      <point x="1090" y="-224"/>
      <point x="1064" y="-174" type="curve" smooth="yes"/>
      <point x="483" y="924" type="line" smooth="yes"/>
      <point x="424" y="1036"/>
      <point x="349" y="1092"/>
      <point x="224" y="1091" type="curve"/>
      <point x="184" y="1091"/>
      <point x="63" y="1076"/>
      <point x="26" y="1066" type="curve"/>
      <point x="25" y="894" type="line"/>
      <point x="43" y="898"/>
      <point x="81" y="901"/>
      <point x="101" y="901" type="curve"/>
      <point x="149" y="900"/>
      <point x="193" y="857"/>
      <point x="215" y="815" type="curve" smooth="yes"/>
    </contour>
    <contour>
      <point x="703" y="369" type="line"/>
      <point x="1106" y="1066" type="line"/>
      <point x="809" y="1066" type="line"/>
      <point x="565" y="627" type="line"/>
    </contour>
    <contour>
      <point x="504" y="524" type="line"/>
      <point x="-24" y="-422" type="line"/>
      <point x="281" y="-422" type="line"/>
      <point x="642" y="249" type="line"/>
    </contour>
  </outline>
  <guideline angle="58.472" x="230" y="-398"/>
  <guideline angle="238.506" x="504" y="383"/>
</glyph>
<glyph name="psi" format="2">
  <advance width="1565"/>
  <unicode hex="03C8"/>
  <outline>
    <contour>
      <point x="674" y="-426" type="line"/>
      <point x="938" y="-426" type="line"/>
      <point x="938" y="1536" type="line"/>
      <point x="674" y="1536" type="line"/>
    </contour>
    <contour>
      <point x="906" y="-28" type="line"/>
      <point x="1138" y="-30"/>
      <point x="1453" y="75"/>
      <point x="1453" y="425" type="curve" smooth="yes"/>
      <point x="1453" y="1066" type="line"/>
      <point x="1189" y="1066" type="line"/>
      <point x="1189" y="396" type="line" smooth="yes"/>
      <point x="1189" y="238"/>
      <point x="1087" y="145"/>
      <point x="906" y="145" type="curve"/>
    </contour>
    <contour>
      <point x="713" y="145" type="line"/>
      <point x="538" y="146"/>
      <point x="419" y="209"/>
      <point x="419" y="396" type="curve" smooth="yes"/>
      <point x="419" y="1066" type="line"/>
      <point x="155" y="1066" type="line"/>
      <point x="155" y="423" type="line" smooth="yes"/>
      <point x="155" y="201"/>
      <point x="329" y="-29"/>
      <point x="713" y="-30" type="curve"/>
    </contour>
  </outline>
</glyph>
<glyph name="Becyr" format="2">
  <advance width="1271"/>
  <unicode hex="0411"/>
  <outline>
    <contour>
      <point x="186" y="0" type="line"/>
      <point x="446" y="0" type="line"/>
      <point x="446" y="1210" type="line"/>
      <point x="1030" y="1210" type="line"/>
      <point x="1030" y="1445" type="line"/>
      <point x="186" y="1445" type="line"/>
    </contour>
    <contour>
      <point x="396" y="0" type="line"/>
      <point x="751" y="0" type="line" smooth="yes"/>
      <point x="1000" y="0"/>
      <point x="1223" y="150"/>
      <point x="1223" y="420" type="curve" smooth="yes"/>
      <point x="1223" y="680"/>
      <point x="1078" y="864"/>
      <point x="755" y="864" type="curve" smooth="yes"/>
      <point x="396" y="864" type="line"/>
      <point x="396" y="640" type="line"/>
      <point x="744" y="640" type="line" smooth="yes"/>
      <point x="858" y="640"/>
      <point x="967" y="573"/>
      <point x="967" y="449" type="curve" smooth="yes"/>
      <point x="967" y="309"/>
      <point x="885" y="248"/>
      <point x="755" y="248" type="curve" smooth="yes"/>
      <point x="396" y="248" type="line"/>
    </contour>
  </outline>
</glyph>
<glyph name="Kacyr" format="2">
  <advance width="1413"/>
  <unicode hex="041A"/>
  <anchor x="631" y="1618" name="top"/>
  <outline>
    <contour>
      <point x="186" y="0" type="line"/>
      <point x="446" y="0" type="line"/>
      <point x="446" y="680" type="line"/>
      <point x="678" y="680" type="line" smooth="yes"/>
      <point x="782" y="680"/>
      <point x="840" y="569"/>
      <point x="870" y="484" type="curve" smooth="yes"/>
      <point x="1040" y="0" type="line"/>
      <point x="1363" y="0" type="line"/>
      <point x="1095" y="602" type="line" smooth="yes"/>
      <point x="1020" y="770"/>
      <point x="941" y="854"/>
      <point x="858" y="854" type="curve"/>
      <point x="1290" y="1448" type="line"/>
      <point x="942" y="1448" type="line"/>
      <point x="600" y="923" type="line"/>
      <point x="446" y="923" type="line"/>
      <point x="446" y="1448" type="line"/>
      <point x="186" y="1448" type="line"/>
    </contour>
  </outline>
</glyph>
<glyph name="Efcyr" format="2">
  <advance width="1820"/>
  <unicode hex="0424"/>
  <outline>
    <contour>
      <point x="820" y="105" type="curve"/>
      <point x="820" y="337" type="line"/>
      <point x="510" y="337"/>
      <point x="358" y="489"/>
      <point x="358" y="722" type="curve" smooth="yes"/>
      <point x="358" y="960"/>
      <point x="519" y="1110"/>
      <point x="820" y="1110" type="curve"/>
      <point x="820" y="1342" type="line"/>
      <point x="420" y="1342"/>
      <point x="84" y="1158"/>
      <point x="84" y="722" type="curve" smooth="yes"/>
      <point x="84" y="298"/>
      <point x="403" y="105"/>
    </contour>
    <contour>
      <point x="1005" y="105" type="line"/>
      <point x="1403" y="105"/>
      <point x="1741" y="287"/>
      <point x="1741" y="722" type="curve" smooth="yes"/>
      <point x="1741" y="1145"/>
      <point x="1422" y="1342"/>
      <point x="1005" y="1342" type="curve"/>
      <point x="1005" y="1110" type="line"/>
      <point x="1312" y="1110"/>
      <point x="1466" y="956"/>
      <point x="1466" y="722" type="curve" smooth="yes"/>
      <point x="1466" y="484"/>
      <point x="1309" y="337"/>
      <point x="1005" y="337" type="curve"/>
    </contour>
    <contour>
      <point x="782" y="0" type="line"/>
      <point x="1042" y="0" type="line"/>
      <point x="1042" y="1448" type="line"/>
      <point x="782" y="1448" type="line"/>
    </contour>
  </outline>
</glyph>
<glyph name="Checyr" format="2">
  <advance width="1355"/>
  <unicode hex="0427"/>
  <outline>
    <contour>
      <point x="937" y="0" type="line"/>
      <point x="1197" y="0" type="line"/>
      <point x="1197" y="1448" type="line"/>
      <point x="937" y="1448" type="line"/>
      <point x="937" y="793" type="line"/>
      <point x="866" y="712"/>
      <point x="768" y="671"/>
      <point x="644" y="671" type="curve" smooth="yes"/>
      <point x="403" y="671"/>
      <point x="350" y="808"/>
      <point x="350" y="1034" type="curve" smooth="yes"/>
      <point x="350" y="1448" type="line"/>
      <point x="90" y="1448" type="line"/>
      <point x="90" y="1005" type="line" smooth="yes"/>
      <point x="90" y="639"/>
      <point x="267" y="420"/>
      <point x="644" y="420" type="curve" smooth="yes"/>
      <point x="743" y="420"/>
      <point x="842" y="445"/>
      <point x="937" y="493" type="curve"/>
    </contour>
  </outline>
</glyph>
<glyph name="kacyr" format="2">
  <advance width="1158"/>
  <unicode hex="043A"/>
  <anchor x="543" y="1192" name="top"/>
  <outline>
    <contour>
      <point x="155" y="0" type="line"/>
      <point x="404" y="0" type="line"/>
      <point x="404" y="451" type="line"/>
      <point x="543" y="451" type="line" smooth="yes"/>
      <point x="611" y="451"/>
      <point x="653" y="409"/>
      <point x="683" y="331" type="curve" smooth="yes"/>
      <point x="812" y="0" type="line"/>
      <point x="1119" y="0" type="line"/>
      <point x="932" y="436" type="line" smooth="yes"/>
      <point x="888" y="538"/>
      <point x="827" y="600"/>
      <point x="777" y="600" type="curve"/>
      <point x="1065" y="1064" type="line"/>
      <point x="764" y="1064" type="line"/>
      <point x="515" y="635" type="line"/>
      <point x="404" y="635" type="line"/>
      <point x="404" y="1064" type="line"/>
      <point x="155" y="1064" type="line"/>
    </contour>
  </outline>
</glyph>
<glyph name="yucyr" format="2">
  <advance width="1677"/>
  <unicode hex="044E"/>
  <outline>
    <contour>
      <point x="155" y="0" type="line"/>
      <point x="409" y="0" type="line"/>
      <point x="409" y="500" type="line"/>
      <point x="609" y="500" type="line"/>
      <point x="609" y="686" type="line"/>
      <point x="409" y="686" type="line"/>
      <point x="409" y="1064" type="line"/>
      <point x="155" y="1064" type="line"/>
    </contour>
    <contour>
      <point x="1077" y="-20" type="curve" smooth="yes"/>
      <point x="1408" y="-20"/>
      <point x="1627" y="198"/>
      <point x="1627" y="528" type="curve" smooth="yes"/>
      <point x="1627" y="860"/>
      <point x="1410" y="1077"/>
      <point x="1077" y="1077" type="curve" smooth="yes"/>
      <point x="747" y="1077"/>
      <point x="526" y="858"/>
      <point x="526" y="531" type="curve" smooth="yes"/>
      <point x="526" y="200"/>
      <point x="746" y="-20"/>
    </contour>
    <contour>
      <point x="1082" y="195" type="curve" smooth="yes"/>
      <point x="911" y="195"/>
      <point x="808" y="320"/>
      <point x="808" y="528" type="curve" smooth="yes"/>
      <point x="808" y="738"/>
      <point x="909" y="861"/>
      <point x="1082" y="861" type="curve" smooth="yes"/>
      <point x="1253" y="861"/>
      <point x="1357" y="735"/>
      <point x="1357" y="528" type="curve" smooth="yes"/>
      <point x="1357" y="318"/>
      <point x="1254" y="195"/>
    </contour>
  </outline>
</glyph>
<glyph name="eiotifiedcyr" format="2">
  <advance width="1571"/>
  <unicode hex="0465"/>
  <outline>
    <contour>
      <point x="574" y="524" type="curve" smooth="yes"/>
      <point x="574" y="202"/>
      <point x="782" y="-20"/>
      <point x="1083" y="-20" type="curve" smooth="yes"/>
      <point x="1292" y="-20"/>
      <point x="1453" y="92"/>
      <point x="1526" y="290" type="curve"/>
      <point x="1290" y="384" type="line"/>
      <point x="1260" y="277"/>
      <point x="1180" y="214"/>
      <point x="1076" y="214" type="curve" smooth="yes"/>
      <point x="923" y="214"/>
      <point x="828" y="335"/>
      <point x="828" y="528" type="curve" smooth="yes"/>
      <point x="828" y="723"/>
      <point x="924" y="846"/>
      <point x="1076" y="846" type="curve" smooth="yes"/>
      <point x="1183" y="846"/>
      <point x="1259" y="785"/>
      <point x="1290" y="676" type="curve"/>
      <point x="1536" y="777" type="line"/>
      <point x="1453" y="971"/>
      <point x="1289" y="1081"/>
      <point x="1081" y="1081" type="curve" smooth="yes"/>
      <point x="778" y="1081"/>
      <point x="574" y="857"/>
    </contour>
    <contour>
      <point x="155" y="0" type="line"/>
      <point x="409" y="0" type="line"/>
      <point x="409" y="417" type="line"/>
      <point x="671" y="417" type="line"/>
      <point x="671" y="604" type="line"/>
      <point x="409" y="604" type="line"/>
      <point x="409" y="1064" type="line"/>
      <point x="155" y="1064" type="line"/>
    </contour>
    <contour>
      <point x="760" y="417" type="line"/>
      <point x="1209" y="417" type="line"/>
      <point x="1209" y="604" type="line"/>
      <point x="760" y="604" type="line"/>
    </contour>
  </outline>
</glyph>
<glyph name="yuslittleiotifiedcyr" format="2">
  <advance width="1554"/>
  <unicode hex="0469"/>
  <outline>
    <contour>
      <point x="155" y="0" type="line"/>
      <point x="409" y="0" type="line"/>
      <point x="409" y="416" type="line"/>
      <point x="770" y="416" type="line"/>
      <point x="844" y="603" type="line"/>
      <point x="409" y="603" type="line"/>
      <point x="409" y="1064" type="line"/>
      <point x="155" y="1064" type="line"/>
    </contour>
    <contour>
      <point x="495" y="0" type="line"/>
      <point x="747" y="0" type="line"/>
      <point x="1000" y="749" type="line"/>
      <point x="1252" y="0" type="line"/>
      <point x="1502" y="0" type="line"/>
      <point x="1097" y="1064" type="line"/>
      <point x="902" y="1064" type="line"/>
    </contour>
    <contour>
      <point x="912" y="0" type="line"/>
      <point x="1088" y="0" type="line"/>
      <point x="1088" y="217" type="line"/>
      <point x="912" y="217" type="line"/>
    </contour>
    <contour>
      <point x="769" y="186" type="line"/>
      <point x="1233" y="186" type="line"/>
      <point x="1174" y="367" type="line"/>
      <point x="827" y="367" type="line"/>
    </contour>
  </outline>
</glyph>
<glyph name="Ustraightstrokecyr" format="2">
  <advance width="1353"/>
  <unicode hex="04B0"/>
  <outline>
    <contour>
      <point x="812" y="0" type="line"/>
      <point x="812" y="270" type="line"/>
      <point x="1068" y="270" type="line"/>
      <point x="1068" y="488" type="line"/>
      <point x="812" y="488" type="line"/>
      <point x="812" y="564" type="line"/>
      <point x="1353" y="1447" type="line"/>
      <point x="1036" y="1447" type="line"/>
      <point x="673" y="814" type="line"/>
      <point x="312" y="1447" type="line"/>
      <point x="-2" y="1447" type="line"/>
      <point x="541" y="564" type="line"/>
      <point x="541" y="488" type="line"/>
      <point x="285" y="488" type="line"/>
      <point x="285" y="270" type="line"/>
      <point x="541" y="270" type="line"/>
      <point x="541" y="0" type="line"/>
    </contour>
  </outline>
</glyph>
<glyph name="Chetailcyr" format="2">
  <advance width="1355"/>
  <unicode hex="04B6"/>
  <outline>
    <contour>
      <point x="1403" y="-244" type="line"/>
      <point x="1403" y="172" type="line"/>
      <point x="1197" y="172" type="line"/>
      <point x="1197" y="1445" type="line"/>
      <point x="937" y="1445" type="line"/>
      <point x="937" y="793" type="line"/>
      <point x="866" y="712"/>
      <point x="768" y="671"/>
      <point x="644" y="671" type="curve" smooth="yes"/>
      <point x="404" y="671"/>
      <point x="350" y="808"/>
      <point x="350" y="1034" type="curve" smooth="yes"/>
      <point x="350" y="1445" type="line"/>
      <point x="90" y="1445" type="line"/>
      <point x="90" y="1005" type="line" smooth="yes"/>
      <point x="90" y="639"/>
      <point x="267" y="420"/>
      <point x="644" y="420" type="curve" smooth="yes"/>
      <point x="743" y="420"/>
      <point x="842" y="445"/>
      <point x="937" y="493" type="curve"/>
      <point x="937" y="0" type="line"/>
      <point x="1155" y="0" type="line"/>
      <point x="1155" y="-244" type="line"/>
    </contour>
  </outline>
</glyph>
<glyph name="endash" format="2">
  <advance width="1076"/>
  <unicode hex="2013"/>
  <outline>
    <contour>
      <point x="931" y="520" type="line"/>
      <point x="931" y="709" type="line"/>
      <point x="144" y="709" type="line"/>
      <point x="144" y="520" type="line"/>
    </contour>
  </outline>
</glyph>
<glyph name="horizontalbar" format="2">
  <advance width="1544"/>
  <unicode hex="2015"/>
  <outline>
    <contour>
      <point x="1435" y="520" type="line"/>
      <point x="1435" y="709" type="line"/>
      <point x="144" y="709" type="line"/>
      <point x="144" y="520" type="line"/>
    </contour>
  </outline>
</glyph>
<glyph name="quoteright" format="2">
  <advance width="587"/>
  <unicode hex="2019"/>
  <outline>
    <contour>
      <point x="272" y="877" type="line"/>
      <point x="530" y="1447" type="line"/>
      <point x="248" y="1447" type="line"/>
      <point x="106" y="877" type="line"/>
    </contour>
  </outline>
</glyph>
<glyph name="twodotenleader" format="2">
  <advance width="1086"/>
  <unicode hex="2025"/>
  <outline>
    <contour>
      <point x="457" y="0" type="line"/>
      <point x="457" y="270" type="line"/>
      <point x="206" y="270" type="line"/>
      <point x="206" y="0" type="line"/>
    </contour>
    <contour>
      <point x="881" y="0" type="line"/>
      <point x="881" y="270" type="line"/>
      <point x="629" y="270" type="line"/>
      <point x="629" y="0" type="line"/>
    </contour>
  </outline>
</glyph>
<glyph name="guilsinglleft" format="2">
  <advance width="606"/>
  <unicode hex="2039"/>
  <outline>
    <contour>
      <point x="455" y="160" type="line"/>
      <point x="455" y="376" type="line"/>
      <point x="270" y="522" type="line"/>
      <point x="455" y="671" type="line"/>
      <point x="455" y="887" type="line"/>
      <point x="16" y="522" type="line"/>
    </contour>
  </outline>
</glyph>
<glyph name="guilsinglright" format="2">
  <advance width="608"/>
  <unicode hex="203A"/>
  <outline>
    <contour>
      <point x="148" y="160" type="line"/>
      <point x="587" y="522" type="line"/>
      <point x="148" y="887" type="line"/>
      <point x="148" y="671" type="line"/>
      <point x="334" y="522" type="line"/>
      <point x="148" y="376" type="line"/>
    </contour>
  </outline>
</glyph>
<glyph name="zero.superior" format="2">
  <advance width="977"/>
  <unicode hex="2070"/>
  <outline>
    <contour>
      <point x="483" y="884" type="curve" smooth="yes"/>
      <point x="756" y="884"/>
      <point x="886" y="1144"/>
      <point x="886" y="1390" type="curve" smooth="yes"/>
      <point x="886" y="1637"/>
      <point x="754" y="1900"/>
      <point x="473" y="1900" type="curve" smooth="yes"/>
      <point x="192" y="1900"/>
      <point x="69" y="1645"/>
      <point x="69" y="1391" type="curve" smooth="yes"/>
      <point x="69" y="1139"/>
      <point x="197" y="884"/>
    </contour>
    <contour>
      <point x="478" y="1068" type="curve" smooth="yes"/>
      <point x="312" y="1068"/>
      <point x="262" y="1256"/>
      <point x="262" y="1391" type="curve" smooth="yes"/>
      <point x="262" y="1522"/>
      <point x="313" y="1711"/>
      <point x="473" y="1711" type="curve" smooth="yes"/>
      <point x="637" y="1711"/>
      <point x="684" y="1525"/>
      <point x="684" y="1392" type="curve" smooth="yes"/>
      <point x="684" y="1266"/>
      <point x="635" y="1068"/>
    </contour>
  </outline>
</glyph>
<glyph name="seven.superior" format="2">
  <advance width="870"/>
  <unicode hex="2077"/>
  <outline>
    <contour>
      <point x="331" y="936" type="line"/>
      <point x="759" y="1801" type="line"/>
      <point x="759" y="1900" type="line"/>
      <point x="62" y="1900" type="line"/>
      <point x="62" y="1723" type="line"/>
      <point x="549" y="1723" type="line"/>
      <point x="139" y="936" type="line"/>
    </contour>
  </outline>
</glyph>
<glyph name="one.inferior" format="2">
  <advance width="723"/>
  <unicode hex="2081"/>
  <outline>
    <contour>
      <point x="531" y="-464" type="line"/>
      <point x="531" y="500" type="line"/>
      <point x="346" y="500" type="line"/>
      <point x="346" y="475" type="line" smooth="yes"/>
      <point x="346" y="406"/>
      <point x="305" y="374"/>
      <point x="243" y="374" type="curve" smooth="yes"/>
      <point x="84" y="374" type="line"/>
      <point x="84" y="226" type="line"/>
      <point x="339" y="226" type="line"/>
      <point x="339" y="-464" type="line"/>
    </contour>
  </outline>
</glyph>
<glyph name="eight.inferior" format="2">
  <advance width="900"/>
  <unicode hex="2088"/>
  <outline>
    <contour>
      <point x="444" y="-512" type="curve" smooth="yes"/>
      <point x="631" y="-512"/>
      <point x="839" y="-427"/>
      <point x="839" y="-214" type="curve" smooth="yes"/>
      <point x="839" y="-111"/>
      <point x="786" y="-22"/>
      <point x="681" y="34" type="curve"/>
      <point x="746" y="83"/>
      <point x="784" y="152"/>
      <point x="784" y="234" type="curve" smooth="yes"/>
      <point x="784" y="415"/>
      <point x="602" y="500"/>
      <point x="444" y="500" type="curve" smooth="yes"/>
      <point x="281" y="500"/>
      <point x="103" y="415"/>
      <point x="103" y="233" type="curve" smooth="yes"/>
      <point x="103" y="153"/>
      <point x="138" y="86"/>
      <point x="207" y="34" type="curve"/>
      <point x="112" y="-16"/>
      <point x="49" y="-100"/>
      <point x="49" y="-215" type="curve" smooth="yes"/>
      <point x="49" y="-431"/>
      <point x="261" y="-512"/>
    </contour>
    <contour>
      <point x="447" y="107" type="curve" smooth="yes"/>
      <point x="356" y="107"/>
      <point x="296" y="151"/>
      <point x="296" y="224" type="curve" smooth="yes"/>
      <point x="296" y="308"/>
      <point x="376" y="337"/>
      <point x="447" y="337" type="curve" smooth="yes"/>
      <point x="520" y="337"/>
      <point x="598" y="305"/>
      <point x="598" y="221" type="curve" smooth="yes"/>
      <point x="598" y="147"/>
      <point x="533" y="107"/>
    </contour>
    <contour>
      <point x="442" y="-345" type="curve" smooth="yes"/>
      <point x="331" y="-345"/>
      <point x="240" y="-298"/>
      <point x="240" y="-202" type="curve" smooth="yes"/>
      <point x="240" y="-107"/>
      <point x="332" y="-59"/>
      <point x="442" y="-59" type="curve" smooth="yes"/>
      <point x="534" y="-59"/>
      <point x="645" y="-94"/>
      <point x="645" y="-204" type="curve" smooth="yes"/>
      <point x="645" y="-300"/>
      <point x="553" y="-345"/>
    </contour>
  </outline>
</glyph>
<glyph name="austral" format="2">
  <advance width="1229"/>
  <unicode hex="20B3"/>
  <outline>
    <contour>
      <point x="1312" y="0" type="line"/>
      <point x="1187" y="314" type="line"/>
      <point x="1291" y="314" type="line"/>
      <point x="1291" y="474" type="line"/>
      <point x="1124" y="474" type="line"/>
      <point x="1041" y="682" type="line"/>
      <point x="1291" y="682" type="line"/>
      <point x="1291" y="841" type="line"/>
      <point x="977" y="841" type="line"/>
      <point x="735" y="1447" type="line"/>
      <point x="541" y="1447" type="line"/>
      <point x="298" y="841" type="line"/>
      <point x="-17" y="841" type="line"/>
      <point x="-17" y="682" type="line"/>
      <point x="235" y="682" type="line"/>
      <point x="151" y="474" type="line"/>
      <point x="-17" y="474" type="line"/>
      <point x="-17" y="314" type="line"/>
      <point x="87" y="314" type="line"/>
      <point x="-39" y="0" type="line"/>
      <point x="245" y="0" type="line"/>
      <point x="358" y="314" type="line"/>
      <point x="920" y="314" type="line"/>
      <point x="1031" y="0" type="line"/>
    </contour>
    <contour>
      <point x="741" y="841" type="line"/>
      <point x="537" y="841" type="line"/>
      <point x="637" y="1128" type="line"/>
    </contour>
    <contour>
      <point x="872" y="474" type="line"/>
      <point x="409" y="474" type="line"/>
      <point x="481" y="682" type="line"/>
      <point x="797" y="682" type="line"/>
    </contour>
  </outline>
</glyph>
<glyph name="trademark" format="2">
  <advance width="1439"/>
  <unicode hex="2122"/>
  <outline>
    <contour>
      <point x="440" y="898" type="line"/>
      <point x="440" y="1305" type="line"/>
      <point x="589" y="1305" type="line"/>
      <point x="589" y="1447" type="line"/>
      <point x="136" y="1447" type="line"/>
      <point x="136" y="1305" type="line"/>
      <point x="286" y="1305" type="line"/>
      <point x="286" y="898" type="line"/>
    </contour>
    <contour>
      <point x="1217" y="898" type="line"/>
      <point x="1217" y="1447" type="line"/>
      <point x="1065" y="1447" type="line"/>
      <point x="948" y="1124" type="line"/>
      <point x="830" y="1447" type="line"/>
      <point x="678" y="1447" type="line"/>
      <point x="678" y="898" type="line"/>
      <point x="833" y="898" type="line"/>
      <point x="833" y="1175" type="line"/>
      <point x="900" y="981" type="line"/>
      <point x="998" y="981" type="line"/>
      <point x="1061" y="1170" type="line"/>
      <point x="1061" y="898" type="line"/>
    </contour>
  </outline>
</glyph>
<glyph name="Elcyr.loclBGR" format="2">
  <advance width="1355"/>
  <outline>
    <contour>
      <point x="12" y="0" type="line"/>
      <point x="298" y="0" type="line"/>
      <point x="686" y="1026" type="line"/>
      <point x="1076" y="0" type="line"/>
      <point x="1363" y="0" type="line"/>
      <point x="784" y="1448" type="line"/>
      <point x="589" y="1448" type="line"/>
    </contour>
  </outline>
</glyph>
<glyph name="circumflexcomb_hookabovecomb" format="2">
  <anchor x="-396" y="1212" name="_top"/>
  <outline>
    <contour>
      <point x="-720" y="1192" type="line"/>
      <point x="-526" y="1192" type="line"/>
      <point x="-396" y="1340" type="line"/>
      <point x="-264" y="1192" type="line"/>
      <point x="-72" y="1192" type="line"/>
      <point x="-396" y="1552" type="line"/>
    </contour>
    <contour>
      <point x="-159" y="1330" type="line"/>
      <point x="31" y="1358"/>
      <point x="114" y="1417"/>
      <point x="114" y="1530" type="curve" smooth="yes"/>
      <point x="114" y="1662"/>
      <point x="-13" y="1743"/>
      <point x="-221" y="1743" type="curve" smooth="yes"/>
      <point x="-252" y="1743" type="line"/>
      <point x="-252" y="1597" type="line"/>
      <point x="-117" y="1597"/>
      <point x="-54" y="1570"/>
      <point x="-54" y="1514" type="curve" smooth="yes"/>
      <point x="-54" y="1469"/>
      <point x="-92" y="1444"/>
      <point x="-187" y="1428" type="curve"/>
    </contour>
  </outline>
</glyph>
<glyph name="gecyr.loclBGR" format="2">
  <advance width="900"/>
  <outline>
    <contour>
      <point x="458" y="-20" type="curve" smooth="yes"/>
      <point x="648" y="-20"/>
      <point x="834" y="76"/>
      <point x="895" y="266" type="curve"/>
      <point x="699" y="354" type="line"/>
      <point x="661" y="245"/>
      <point x="556" y="183"/>
      <point x="444" y="183" type="curve" smooth="yes"/>
      <point x="382" y="183"/>
      <point x="300" y="217"/>
      <point x="300" y="296" type="curve" smooth="yes"/>
      <point x="300" y="492"/>
      <point x="829" y="442"/>
      <point x="829" y="785" type="curve" smooth="yes"/>
      <point x="829" y="991"/>
      <point x="655" y="1084"/>
      <point x="458" y="1084" type="curve" smooth="yes"/>
      <point x="293" y="1084"/>
      <point x="156" y="1004"/>
      <point x="74" y="861" type="curve"/>
      <point x="250" y="764" type="line"/>
      <point x="296" y="842"/>
      <point x="357" y="889"/>
      <point x="457" y="889" type="curve" smooth="yes"/>
      <point x="532" y="889"/>
      <point x="591" y="854"/>
      <point x="591" y="797" type="curve" smooth="yes"/>
      <point x="591" y="582"/>
      <point x="66" y="673"/>
      <point x="66" y="292" type="curve" smooth="yes"/>
      <point x="66" y="79"/>
      <point x="261" y="-20"/>
    </contour>
  </outline>
</glyph>
<glyph name="one.pnum" format="2">
  <advance width="801"/>
  <outline>
    <contour>
      <point x="391" y="0" type="line"/>
      <point x="647" y="0" type="line"/>
      <point x="647" y="1447" type="line"/>
      <point x="402" y="1447" type="line"/>
      <point x="402" y="1407" type="line" smooth="yes"/>
      <point x="402" y="1309"/>
      <point x="346" y="1252"/>
      <point x="247" y="1252" type="curve" smooth="yes"/>
      <point x="8" y="1252" type="line"/>
      <point x="8" y="1055" type="line"/>
      <point x="391" y="1055" type="line"/>
    </contour>
  </outline>
</glyph>
<glyph name="six.pnum" format="2">
  <advance width="1215"/>
  <outline>
    <contour>
      <point x="606" y="-20" type="curve" smooth="yes"/>
      <point x="889" y="-20"/>
      <point x="1135" y="193"/>
      <point x="1135" y="486" type="curve" smooth="yes"/>
      <point x="1135" y="774"/>
      <point x="890" y="971"/>
      <point x="610" y="971" type="curve" smooth="yes"/>
      <point x="600.04" y="971"/>
      <point x="587.46" y="970.11"/>
      <point x="576.29" y="968.35" type="curve"/>
      <point x="890" y="1447" type="line"/>
      <point x="592" y="1447" type="line"/>
      <point x="158" y="734" type="line" smooth="yes"/>
      <point x="110" y="655"/>
      <point x="80" y="572"/>
      <point x="80" y="478" type="curve" smooth="yes"/>
      <point x="80" y="191"/>
      <point x="324" y="-20"/>
    </contour>
    <contour>
      <point x="608" y="222" type="curve" smooth="yes"/>
      <point x="462" y="222"/>
      <point x="334" y="336"/>
      <point x="334" y="484" type="curve" smooth="yes"/>
      <point x="334" y="636"/>
      <point x="462" y="746"/>
      <point x="608" y="746" type="curve" smooth="yes"/>
      <point x="755" y="746"/>
      <point x="882" y="632"/>
      <point x="882" y="484" type="curve" smooth="yes"/>
      <point x="882" y="333"/>
      <point x="753" y="222"/>
    </contour>
  </outline>
</glyph>
<glyph name="three.numr" format="2">
  <advance width="889"/>
  <outline>
    <contour>
      <point x="434" y="473" type="curve" smooth="yes"/>
      <point x="629" y="473"/>
      <point x="829" y="564"/>
      <point x="829" y="781" type="curve" smooth="yes"/>
      <point x="829" y="901"/>
      <point x="765" y="987"/>
      <point x="644" y="1038" type="curve"/>
      <point x="648" y="1002" type="line"/>
      <point x="730" y="1058"/>
      <point x="771" y="1129"/>
      <point x="771" y="1219" type="curve" smooth="yes"/>
      <point x="771" y="1401"/>
      <point x="588" y="1487"/>
      <point x="429" y="1487" type="curve" smooth="yes"/>
      <point x="247" y="1487"/>
      <point x="88" y="1381"/>
      <point x="88" y="1190" type="curve"/>
      <point x="271" y="1180" type="line"/>
      <point x="274" y="1261"/>
      <point x="342" y="1305"/>
      <point x="433" y="1305" type="curve" smooth="yes"/>
      <point x="505" y="1305"/>
      <point x="584" y="1277"/>
      <point x="584" y="1193" type="curve" smooth="yes"/>
      <point x="584" y="1136"/>
      <point x="547" y="1092"/>
      <point x="461" y="1092" type="curve" smooth="yes"/>
      <point x="340" y="1092" type="line"/>
      <point x="340" y="927" type="line"/>
      <point x="462" y="927" type="line" smooth="yes"/>
      <point x="576" y="927"/>
      <point x="643" y="877"/>
      <point x="643" y="795" type="curve" smooth="yes"/>
      <point x="643" y="701"/>
      <point x="547" y="653"/>
      <point x="435" y="653" type="curve" smooth="yes"/>
      <point x="338" y="653"/>
      <point x="221" y="696"/>
      <point x="221" y="811" type="curve"/>
      <point x="35" y="802" type="line"/>
      <point x="35" y="573"/>
      <point x="232" y="473"/>
    </contour>
  </outline>
</glyph>
<glyph name="two.dnom" format="2">
  <advance width="855"/>
  <outline>
    <contour>
      <point x="32" y="0" type="line"/>
      <point x="807" y="0" type="line"/>
      <point x="807" y="176" type="line"/>
      <point x="338" y="176" type="line"/>
      <point x="509" y="271"/>
      <point x="760" y="485"/>
      <point x="760" y="689" type="curve" smooth="yes"/>
      <point x="760" y="841"/>
      <point x="628" y="968"/>
      <point x="428" y="968" type="curve" smooth="yes"/>
      <point x="233" y="968"/>
      <point x="85" y="825"/>
      <point x="71" y="633" type="curve"/>
      <point x="261" y="624" type="line"/>
      <point x="270" y="720"/>
      <point x="319" y="792"/>
      <point x="428" y="792" type="curve" smooth="yes"/>
      <point x="522" y="792"/>
      <point x="564" y="733"/>
      <point x="564" y="656" type="curve" smooth="yes"/>
      <point x="564" y="491"/>
      <point x="177" y="170"/>
      <point x="32" y="134" type="curve"/>
    </contour>
  </outline>
</glyph>
<glyph name="two.numr" format="2">
  <advance width="855"/>
  <outline>
    <contour>
      <point x="32" y="500" type="line"/>
      <point x="807" y="500" type="line"/>
      <point x="807" y="676" type="line"/>
      <point x="338" y="676" type="line"/>
      <point x="509" y="771"/>
      <point x="760" y="985"/>
      <point x="760" y="1189" type="curve" smooth="yes"/>
      <point x="760" y="1341"/>
      <point x="628" y="1468"/>
      <point x="428" y="1468" type="curve" smooth="yes"/>
      <point x="233" y="1468"/>
      <point x="85" y="1325"/>
      <point x="71" y="1133" type="curve"/>
      <point x="261" y="1124" type="line"/>
      <point x="270" y="1220"/>
      <point x="319" y="1292"/>
      <point x="428" y="1292" type="curve" smooth="yes"/>
      <point x="522" y="1292"/>
      <point x="564" y="1233"/>
      <point x="564" y="1156" type="curve" smooth="yes"/>
      <point x="564" y="991"/>
      <point x="177" y="670"/>
      <point x="32" y="634" type="curve"/>
    </contour>
  </outline>
</glyph>
<glyph name="zecyr.loclBGR" format="2">
  <advance width="1057"/>
  <outline>
    <contour>
      <point x="486" y="-457" type="curve" smooth="yes" name=".dv01"/>
      <point x="770" y="-457"/>
      <point x="1004" y="-285"/>
      <point x="1004" y="11" type="curve" smooth="yes" name=".dh02"/>
      <point x="1004" y="200"/>
      <point x="920" y="378"/>
      <point x="718" y="415" type="curve" name=".dv06"/>
      <point x="729" y="368" type="line"/>
      <point x="871" y="426"/>
      <point x="960" y="549"/>
      <point x="960" y="698" type="curve" smooth="yes" name=".ih01"/>
      <point x="960" y="954"/>
      <point x="762" y="1087"/>
      <point x="522" y="1087" type="curve" smooth="yes" name=".dv04"/>
      <point x="291" y="1087"/>
      <point x="124" y="979"/>
      <point x="30" y="771" type="curve"/>
      <point x="247" y="665" type="line"/>
      <point x="304" y="781"/>
      <point x="386" y="875"/>
      <point x="516" y="875" type="curve" smooth="yes" name=".dv03"/>
      <point x="643" y="875"/>
      <point x="720" y="818"/>
      <point x="720" y="687" type="curve" smooth="yes" name=".sh01"/>
      <point x="720" y="550"/>
      <point x="644" y="478"/>
      <point x="538" y="478" type="curve" smooth="yes"/>
      <point x="344" y="478" type="line" name=".sv01"/>
      <point x="344" y="267" type="line"/>
      <point x="517" y="267" type="line" smooth="yes" name=".dv05"/>
      <point x="669" y="267"/>
      <point x="754" y="165"/>
      <point x="754" y="19" type="curve" smooth="yes" name=".dh01"/>
      <point x="754" y="-143"/>
      <point x="644" y="-248"/>
      <point x="480" y="-248" type="curve" smooth="yes" name=".dv02"/>
      <point x="376" y="-248"/>
      <point x="264" y="-163"/>
      <point x="213" y="-70" type="curve"/>
      <point x="21" y="-217" type="line"/>
      <point x="101" y="-359"/>
      <point x="308" y="-457"/>
    </contour>
  </outline>
</glyph>
